<svg width="20" height="20" viewBox="0 0 20 20" fill="none" xmlns="http://www.w3.org/2000/svg">
<path d="M4.82843 10.4857L10.4853 4.82888C11.6569 3.6573 13.5564 3.6573 14.7279 4.82888C15.8995 6.00045 15.8995 7.89994 14.7279 9.07152L8.01041 15.789C7.42462 16.3748 6.47488 16.3748 5.88909 15.789C5.3033 15.2032 5.3033 14.2535 5.88909 13.6677L11.8995 7.6573C12.0948 7.46204 12.0948 7.14546 11.8995 6.9502C11.7042 6.75493 11.3877 6.75493 11.1924 6.9502L5.18198 12.9606C4.20567 13.9369 4.20567 15.5198 5.18198 16.4961C6.15829 17.4724 7.74121 17.4724 8.71752 16.4961L15.435 9.77862C16.9971 8.21653 16.9971 5.68387 15.435 4.12177C13.8729 2.55967 11.3403 2.55967 9.77818 4.12177L4.12132 9.77862C3.92606 9.97388 3.92606 10.2905 4.12132 10.4857C4.31659 10.681 4.63317 10.681 4.82843 10.4857Z" fill="#212121"/>
</svg>
