<svg width="16" height="32" viewBox="0 0 16 32" fill="none" xmlns="http://www.w3.org/2000/svg">
<path d="M0.5 11C0.364583 11 0.247396 10.9505 0.148438 10.8516C0.0494792 10.7526 0 10.6354 0 10.5C0 10.3646 0.0494792 10.2474 0.148438 10.1484C0.247396 10.0495 0.364583 10 0.5 10H15.5C15.6354 10 15.7526 10.0495 15.8516 10.1484C15.9505 10.2474 16 10.3646 16 10.5C16 10.6354 15.9505 10.7526 15.8516 10.8516C15.7526 10.9505 15.6354 11 15.5 11H0.5ZM0.5 16C0.364583 16 0.247396 15.9505 0.148438 15.8516C0.0494792 15.7526 0 15.6354 0 15.5C0 15.3646 0.0494792 15.2474 0.148438 15.1484C0.247396 15.0495 0.364583 15 0.5 15H15.5C15.6354 15 15.7526 15.0495 15.8516 15.1484C15.9505 15.2474 16 15.3646 16 15.5C16 15.6354 15.9505 15.7526 15.8516 15.8516C15.7526 15.9505 15.6354 16 15.5 16H0.5ZM0.5 21C0.364583 21 0.247396 20.9505 0.148438 20.8516C0.0494792 20.7526 0 20.6354 0 20.5C0 20.3646 0.0494792 20.2474 0.148438 20.1484C0.247396 20.0495 0.364583 20 0.5 20H15.5C15.6354 20 15.7526 20.0495 15.8516 20.1484C15.9505 20.2474 16 20.3646 16 20.5C16 20.6354 15.9505 20.7526 15.8516 20.8516C15.7526 20.9505 15.6354 21 15.5 21H0.5Z" fill="black" fill-opacity="0.8956"/>
</svg>
