<svg width="16" height="16" viewBox="0 0 16 16" fill="none" xmlns="http://www.w3.org/2000/svg">
<path d="M0 15.5C0 15.3646 0.0208333 15.224 0.0625 15.0781C0.109375 14.9323 0.148438 14.7943 0.179688 14.6641C0.299479 14.1693 0.424479 13.6797 0.554688 13.1953C0.684896 12.7109 0.809896 12.2214 0.929688 11.7266C0.622396 11.1536 0.390625 10.5547 0.234375 9.92969C0.078125 9.30469 0 8.66667 0 8.01562C0 7.28125 0.09375 6.57292 0.28125 5.89062C0.473958 5.20312 0.742188 4.5625 1.08594 3.96875C1.4349 3.375 1.85156 2.83594 2.33594 2.35156C2.82552 1.86198 3.36719 1.44271 3.96094 1.09375C4.55469 0.744792 5.19271 0.476562 5.875 0.289062C6.55729 0.0963542 7.26562 0 8 0C8.73438 0 9.4401 0.0963542 10.1172 0.289062C10.7995 0.476562 11.4375 0.744792 12.0312 1.09375C12.625 1.44271 13.1641 1.85938 13.6484 2.34375C14.138 2.82812 14.5573 3.36719 14.9062 3.96094C15.2552 4.55469 15.5234 5.19271 15.7109 5.875C15.9036 6.55208 16 7.25781 16 7.99219C16 8.72135 15.9036 9.42708 15.7109 10.1094C15.5234 10.7865 15.2578 11.4219 14.9141 12.0156C14.5703 12.6094 14.1562 13.151 13.6719 13.6406C13.1875 14.1302 12.6484 14.5495 12.0547 14.8984C11.4661 15.2474 10.8333 15.5182 10.1562 15.7109C9.47917 15.9036 8.77344 16 8.03906 16C7.39323 16 6.75781 15.9271 6.13281 15.7812C5.50781 15.6302 4.90885 15.4062 4.33594 15.1094L0.617188 15.9844C0.565104 15.9948 0.526042 16 0.5 16C0.359375 16 0.239583 15.9531 0.140625 15.8594C0.046875 15.7604 0 15.6406 0 15.5ZM7.96875 15C8.61458 15 9.23698 14.9167 9.83594 14.75C10.4349 14.5833 10.9948 14.349 11.5156 14.0469C12.0365 13.7448 12.5104 13.3828 12.9375 12.9609C13.3698 12.5339 13.737 12.0599 14.0391 11.5391C14.3464 11.0182 14.5833 10.4583 14.75 9.85938C14.9167 9.26042 15 8.63802 15 7.99219C15 7.34635 14.9167 6.72656 14.75 6.13281C14.5833 5.53385 14.3464 4.97656 14.0391 4.46094C13.737 3.94531 13.3724 3.47396 12.9453 3.04688C12.5182 2.61979 12.0443 2.25521 11.5234 1.95312C11.0026 1.65104 10.4427 1.41667 9.84375 1.25C9.25 1.08333 8.63281 1 7.99219 1C7.35156 1 6.73177 1.08333 6.13281 1.25C5.53906 1.41667 4.98177 1.65104 4.46094 1.95312C3.94531 2.25521 3.47396 2.61979 3.04688 3.04688C2.625 3.46875 2.26042 3.9375 1.95312 4.45312C1.65104 4.96875 1.41667 5.52604 1.25 6.125C1.08333 6.71875 1 7.33594 1 7.97656C1 8.3151 1.02083 8.6276 1.0625 8.91406C1.10417 9.20052 1.16406 9.48177 1.24219 9.75781C1.32031 10.0286 1.41406 10.2995 1.52344 10.5703C1.63281 10.8411 1.75781 11.125 1.89844 11.4219C1.9401 11.5052 1.96094 11.5859 1.96094 11.6641C1.96094 11.7214 1.94531 11.8281 1.91406 11.9844C1.88281 12.1406 1.84115 12.3203 1.78906 12.5234C1.73698 12.7266 1.67969 12.9453 1.61719 13.1797C1.5599 13.4141 1.5026 13.638 1.44531 13.8516C1.38802 14.0651 1.33594 14.2604 1.28906 14.4375C1.24219 14.6094 1.20833 14.737 1.1875 14.8203C1.54167 14.737 1.89062 14.6536 2.23438 14.5703C2.58333 14.487 2.9349 14.401 3.28906 14.3125C3.46615 14.2708 3.65104 14.2214 3.84375 14.1641C4.03646 14.1068 4.22396 14.0781 4.40625 14.0781C4.44792 14.0781 4.48698 14.0859 4.52344 14.1016C4.5599 14.112 4.59896 14.125 4.64062 14.1406C4.92188 14.2708 5.19271 14.3906 5.45312 14.5C5.71875 14.6042 5.98438 14.6927 6.25 14.7656C6.51562 14.8385 6.78906 14.8958 7.07031 14.9375C7.35156 14.9792 7.65104 15 7.96875 15ZM5.5 7C5.36458 7 5.2474 6.95052 5.14844 6.85156C5.04948 6.7526 5 6.63542 5 6.5C5 6.36458 5.04948 6.2474 5.14844 6.14844C5.2474 6.04948 5.36458 6 5.5 6H10.5C10.6354 6 10.7526 6.04948 10.8516 6.14844C10.9505 6.2474 11 6.36458 11 6.5C11 6.63542 10.9505 6.7526 10.8516 6.85156C10.7526 6.95052 10.6354 7 10.5 7H5.5ZM5.5 10C5.36458 10 5.2474 9.95052 5.14844 9.85156C5.04948 9.7526 5 9.63542 5 9.5C5 9.36458 5.04948 9.2474 5.14844 9.14844C5.2474 9.04948 5.36458 9 5.5 9H8.5C8.63542 9 8.7526 9.04948 8.85156 9.14844C8.95052 9.2474 9 9.36458 9 9.5C9 9.63542 8.95052 9.7526 8.85156 9.85156C8.7526 9.95052 8.63542 10 8.5 10H5.5Z" fill="black" fill-opacity="0.8956"/>
</svg>
