<svg width="13" height="3" viewBox="0 0 13 3" fill="none" xmlns="http://www.w3.org/2000/svg">
<path d="M0 1.25C0 1.07812 0.0338542 0.916667 0.101562 0.765625C0.169271 0.614583 0.257812 0.484375 0.367188 0.375C0.481771 0.260417 0.614583 0.169271 0.765625 0.101562C0.916667 0.0338542 1.07812 0 1.25 0C1.42188 0 1.58333 0.0338542 1.73438 0.101562C1.88542 0.169271 2.01562 0.260417 2.125 0.375C2.23958 0.484375 2.33073 0.614583 2.39844 0.765625C2.46615 0.916667 2.5 1.07812 2.5 1.25C2.5 1.42188 2.46615 1.58333 2.39844 1.73438C2.33073 1.88542 2.23958 2.01823 2.125 2.13281C2.01562 2.24219 1.88542 2.33073 1.73438 2.39844C1.58333 2.46615 1.42188 2.5 1.25 2.5C1.07812 2.5 0.916667 2.46615 0.765625 2.39844C0.614583 2.33073 0.481771 2.24219 0.367188 2.13281C0.257812 2.01823 0.169271 1.88542 0.101562 1.73438C0.0338542 1.58333 0 1.42188 0 1.25ZM5 1.25C5 1.07812 5.03385 0.916667 5.10156 0.765625C5.16927 0.614583 5.25781 0.484375 5.36719 0.375C5.48177 0.260417 5.61458 0.169271 5.76562 0.101562C5.91667 0.0338542 6.07812 0 6.25 0C6.42188 0 6.58333 0.0338542 6.73438 0.101562C6.88542 0.169271 7.01562 0.260417 7.125 0.375C7.23958 0.484375 7.33073 0.614583 7.39844 0.765625C7.46615 0.916667 7.5 1.07812 7.5 1.25C7.5 1.42188 7.46615 1.58333 7.39844 1.73438C7.33073 1.88542 7.23958 2.01823 7.125 2.13281C7.01562 2.24219 6.88542 2.33073 6.73438 2.39844C6.58333 2.46615 6.42188 2.5 6.25 2.5C6.07812 2.5 5.91667 2.46615 5.76562 2.39844C5.61458 2.33073 5.48177 2.24219 5.36719 2.13281C5.25781 2.01823 5.16927 1.88542 5.10156 1.73438C5.03385 1.58333 5 1.42188 5 1.25ZM10 1.25C10 1.07812 10.0339 0.916667 10.1016 0.765625C10.1693 0.614583 10.2578 0.484375 10.3672 0.375C10.4818 0.260417 10.6146 0.169271 10.7656 0.101562C10.9167 0.0338542 11.0781 0 11.25 0C11.4219 0 11.5833 0.0338542 11.7344 0.101562C11.8854 0.169271 12.0156 0.260417 12.125 0.375C12.2396 0.484375 12.3307 0.614583 12.3984 0.765625C12.4661 0.916667 12.5 1.07812 12.5 1.25C12.5 1.42188 12.4661 1.58333 12.3984 1.73438C12.3307 1.88542 12.2396 2.01823 12.125 2.13281C12.0156 2.24219 11.8854 2.33073 11.7344 2.39844C11.5833 2.46615 11.4219 2.5 11.25 2.5C11.0781 2.5 10.9167 2.46615 10.7656 2.39844C10.6146 2.33073 10.4818 2.24219 10.3672 2.13281C10.2578 2.01823 10.1693 1.88542 10.1016 1.73438C10.0339 1.58333 10 1.42188 10 1.25Z" fill="black" fill-opacity="0.8956"/>
</svg>
