<svg width="16" height="16" viewBox="0 0 16 16" fill="none" xmlns="http://www.w3.org/2000/svg">
<path d="M4.25781 12.7891C4.07552 12.7891 3.89583 12.8229 3.71875 12.8906C3.54167 12.9583 3.36458 13.0312 3.1875 13.1094C3.01562 13.1875 2.84115 13.2604 2.66406 13.3281C2.48698 13.3958 2.30729 13.4297 2.125 13.4297C1.96875 13.4297 1.82552 13.3984 1.69531 13.3359C1.5651 13.2682 1.44792 13.1745 1.34375 13.0547C1.27604 12.9766 1.19531 12.8724 1.10156 12.7422C1.01302 12.612 0.919271 12.4688 0.820312 12.3125C0.721354 12.1562 0.622396 11.9922 0.523438 11.8203C0.424479 11.6432 0.335938 11.474 0.257812 11.3125C0.184896 11.1458 0.125 10.9896 0.078125 10.8438C0.03125 10.6979 0.0078125 10.5755 0.0078125 10.4766C0.0078125 10.2891 0.0546875 10.1224 0.148438 9.97656C0.242188 9.82552 0.356771 9.6901 0.492188 9.57031C0.632812 9.44531 0.783854 9.32812 0.945312 9.21875C1.11198 9.10938 1.26302 8.99479 1.39844 8.875C1.53906 8.75 1.65625 8.61979 1.75 8.48438C1.84375 8.34375 1.89062 8.18229 1.89062 8C1.89062 7.82292 1.84375 7.66406 1.75 7.52344C1.65625 7.38281 1.53906 7.2526 1.39844 7.13281C1.25781 7.00781 1.10677 6.88802 0.945312 6.77344C0.783854 6.65885 0.632812 6.53906 0.492188 6.41406C0.351562 6.28385 0.234375 6.14583 0.140625 6C0.046875 5.85417 0 5.6875 0 5.5C0 5.40625 0.0234375 5.28646 0.0703125 5.14062C0.122396 4.99479 0.1875 4.83854 0.265625 4.67188C0.34375 4.50521 0.432292 4.33594 0.53125 4.16406C0.635417 3.98698 0.736979 3.82031 0.835938 3.66406C0.940104 3.5026 1.03906 3.35677 1.13281 3.22656C1.22656 3.09635 1.30729 2.99479 1.375 2.92188C1.47917 2.80729 1.59635 2.71875 1.72656 2.65625C1.86198 2.59375 2.00521 2.5625 2.15625 2.5625C2.33854 2.5625 2.51562 2.59635 2.6875 2.66406C2.85938 2.73177 3.03125 2.80729 3.20312 2.89062C3.375 2.96875 3.54688 3.04167 3.71875 3.10938C3.89583 3.17708 4.07552 3.21094 4.25781 3.21094C4.49219 3.21094 4.69271 3.14062 4.85938 3C5.03125 2.85417 5.13802 2.66667 5.17969 2.4375C5.22656 2.18229 5.27344 1.92708 5.32031 1.67188C5.36719 1.41667 5.41406 1.16146 5.46094 0.90625C5.5026 0.6875 5.59635 0.507812 5.74219 0.367188C5.89323 0.226562 6.07812 0.135417 6.29688 0.09375C6.50521 0.0572917 6.71615 0.0338542 6.92969 0.0234375C7.14323 0.0078125 7.35417 0 7.5625 0C7.78125 0 8 0.0078125 8.21875 0.0234375C8.4375 0.0390625 8.65365 0.0677083 8.86719 0.109375C9.08594 0.151042 9.26562 0.242188 9.40625 0.382812C9.54688 0.523438 9.63802 0.703125 9.67969 0.921875C9.72656 1.17708 9.77083 1.42969 9.8125 1.67969C9.85417 1.92969 9.89844 2.18229 9.94531 2.4375C9.98698 2.66146 10.0938 2.84635 10.2656 2.99219C10.4375 3.13802 10.638 3.21094 10.8672 3.21094C11.0495 3.21094 11.2292 3.17708 11.4062 3.10938C11.5833 3.04167 11.7578 2.96875 11.9297 2.89062C12.1068 2.8125 12.2839 2.73958 12.4609 2.67188C12.638 2.60417 12.8177 2.57031 13 2.57031C13.1615 2.57031 13.3047 2.60417 13.4297 2.67188C13.5599 2.73438 13.6771 2.82552 13.7812 2.94531C13.849 3.02344 13.9271 3.1276 14.0156 3.25781C14.1094 3.38802 14.2057 3.53125 14.3047 3.6875C14.4036 3.84375 14.5026 4.01042 14.6016 4.1875C14.7005 4.35938 14.7865 4.52865 14.8594 4.69531C14.9375 4.85677 15 5.01042 15.0469 5.15625C15.0938 5.30208 15.1172 5.42448 15.1172 5.52344C15.1172 5.71615 15.0703 5.88542 14.9766 6.03125C14.8828 6.17708 14.7656 6.3125 14.625 6.4375C14.4896 6.55729 14.3385 6.67188 14.1719 6.78125C14.0104 6.89062 13.8594 7.00781 13.7188 7.13281C13.5833 7.2526 13.4688 7.38281 13.375 7.52344C13.2812 7.65885 13.2344 7.81771 13.2344 8C13.2344 8.17708 13.2812 8.33594 13.375 8.47656C13.4688 8.61719 13.5859 8.75 13.7266 8.875C13.8672 8.99479 14.0182 9.11198 14.1797 9.22656C14.3411 9.34115 14.4922 9.46354 14.6328 9.59375C14.7734 9.71875 14.8906 9.85417 14.9844 10C15.0781 10.1458 15.125 10.3125 15.125 10.5C15.125 10.6042 15.099 10.7292 15.0469 10.875C15 11.0156 14.9375 11.1693 14.8594 11.3359C14.7812 11.5026 14.6901 11.6719 14.5859 11.8438C14.487 12.0156 14.3854 12.1797 14.2812 12.3359C14.1823 12.4922 14.0833 12.6354 13.9844 12.7656C13.8906 12.8958 13.8099 13 13.7422 13.0781C13.638 13.1927 13.5208 13.2812 13.3906 13.3438C13.2656 13.4062 13.1276 13.4375 12.9766 13.4375C12.8047 13.4375 12.6276 13.4036 12.4453 13.3359C12.2682 13.2682 12.0911 13.1953 11.9141 13.1172C11.737 13.0339 11.5599 12.9583 11.3828 12.8906C11.2057 12.8229 11.0339 12.7891 10.8672 12.7891C10.638 12.7891 10.4609 12.8359 10.3359 12.9297C10.2109 13.0234 10.1146 13.1458 10.0469 13.2969C9.97917 13.4427 9.92969 13.6068 9.89844 13.7891C9.8724 13.9661 9.84375 14.138 9.8125 14.3047C9.78646 14.4401 9.76042 14.5729 9.73438 14.7031C9.71354 14.8281 9.6901 14.9583 9.66406 15.0938C9.6224 15.3177 9.52865 15.5 9.38281 15.6406C9.23698 15.776 9.05208 15.8646 8.82812 15.9062C8.61979 15.9427 8.40885 15.9688 8.19531 15.9844C7.98698 15.9948 7.77604 16 7.5625 16C7.34375 16 7.125 15.9922 6.90625 15.9766C6.6875 15.9609 6.47135 15.9323 6.25781 15.8906C6.03906 15.849 5.85938 15.7578 5.71875 15.6172C5.57812 15.4714 5.48698 15.2891 5.44531 15.0703C5.39844 14.8203 5.35417 14.5703 5.3125 14.3203C5.27083 14.0651 5.22656 13.8125 5.17969 13.5625C5.13802 13.3385 5.03125 13.1536 4.85938 13.0078C4.6875 12.862 4.48698 12.7891 4.25781 12.7891ZM8.67969 14.9219C8.70052 14.8073 8.72396 14.6667 8.75 14.5C8.77604 14.3281 8.80469 14.1536 8.83594 13.9766C8.86719 13.7995 8.90104 13.6302 8.9375 13.4688C8.97396 13.3073 9.01042 13.1771 9.04688 13.0781C9.19271 12.6875 9.42708 12.375 9.75 12.1406C10.0729 11.9062 10.4453 11.7891 10.8672 11.7891C11.0078 11.7891 11.1693 11.8151 11.3516 11.8672C11.5391 11.9141 11.7292 11.9714 11.9219 12.0391C12.1198 12.1068 12.3099 12.1771 12.4922 12.25C12.6745 12.3229 12.8359 12.3854 12.9766 12.4375C13.2214 12.1458 13.4375 11.8385 13.625 11.5156C13.8125 11.1875 13.9766 10.849 14.1172 10.5V10.4922L12.9219 9.47656C12.7031 9.29427 12.5339 9.07552 12.4141 8.82031C12.2943 8.5599 12.2344 8.28646 12.2344 8C12.2344 7.71354 12.2943 7.4401 12.4141 7.17969C12.5391 6.91927 12.7109 6.69792 12.9297 6.51562L14.1094 5.53125V5.52344C14.1094 5.51823 14.099 5.48958 14.0781 5.4375C14.0573 5.38021 14.0443 5.34896 14.0391 5.34375C13.9141 5.02083 13.763 4.71354 13.5859 4.42188C13.4141 4.125 13.2188 3.84115 13 3.57031H12.9922L11.5234 4.10156C11.3151 4.17448 11.1016 4.21094 10.8828 4.21094C10.5286 4.21094 10.2031 4.125 9.90625 3.95312C9.65625 3.8125 9.44792 3.625 9.28125 3.39062C9.11979 3.15625 9.01302 2.89844 8.96094 2.61719L8.69531 1.09375C8.32031 1.03125 7.94271 1 7.5625 1C7.375 1 7.1875 1.00781 7 1.02344C6.8125 1.03385 6.6276 1.05208 6.44531 1.07812C6.39844 1.33854 6.35417 1.59635 6.3125 1.85156C6.27083 2.10677 6.22135 2.36198 6.16406 2.61719C6.11719 2.84635 6.03646 3.0599 5.92188 3.25781C5.80729 3.45052 5.66667 3.61719 5.5 3.75781C5.33333 3.89844 5.14583 4.01042 4.9375 4.09375C4.72917 4.17188 4.50521 4.21094 4.26562 4.21094C4.03125 4.21094 3.8099 4.17188 3.60156 4.09375H3.59375L2.15625 3.5625H2.14844C1.90885 3.85938 1.69271 4.16927 1.5 4.49219C1.30729 4.8099 1.14323 5.14583 1.00781 5.5V5.50781L2.20312 6.52344C2.42188 6.70573 2.59115 6.92708 2.71094 7.1875C2.83073 7.44271 2.89062 7.71354 2.89062 8C2.89062 8.28646 2.82812 8.5599 2.70312 8.82031C2.58333 9.08073 2.41406 9.30208 2.19531 9.48438L1.01562 10.4688V10.4766C1.01562 10.4818 1.02604 10.513 1.04688 10.5703C1.06771 10.6224 1.08073 10.651 1.08594 10.6562C1.21094 10.9792 1.35938 11.2891 1.53125 11.5859C1.70833 11.8776 1.90625 12.1589 2.125 12.4297H2.13281L3.60156 11.8984C3.8099 11.8255 4.02344 11.7891 4.24219 11.7891C4.59635 11.7891 4.92188 11.875 5.21875 12.0469C5.46875 12.1875 5.67448 12.375 5.83594 12.6094C6.0026 12.8438 6.11198 13.1016 6.16406 13.3828L6.42969 14.9062C6.80469 14.9688 7.18229 15 7.5625 15C7.75 15 7.9375 14.9948 8.125 14.9844C8.3125 14.9688 8.4974 14.9479 8.67969 14.9219ZM4.5625 8C4.5625 7.58333 4.64062 7.19271 4.79688 6.82812C4.95312 6.46354 5.16667 6.14583 5.4375 5.875C5.70833 5.60417 6.02604 5.39062 6.39062 5.23438C6.75521 5.07812 7.14583 5 7.5625 5C7.97917 5 8.36979 5.07812 8.73438 5.23438C9.09896 5.39062 9.41667 5.60417 9.6875 5.875C9.95833 6.14583 10.1719 6.46354 10.3281 6.82812C10.4844 7.19271 10.5625 7.58333 10.5625 8C10.5625 8.41667 10.4844 8.80729 10.3281 9.17188C10.1719 9.53646 9.95833 9.85417 9.6875 10.125C9.41667 10.3958 9.09896 10.6094 8.73438 10.7656C8.36979 10.9219 7.97917 11 7.5625 11C7.14583 11 6.75521 10.9219 6.39062 10.7656C6.02604 10.6094 5.70833 10.3958 5.4375 10.125C5.16667 9.85417 4.95312 9.53646 4.79688 9.17188C4.64062 8.80729 4.5625 8.41667 4.5625 8ZM9.5625 8C9.5625 7.72396 9.51042 7.46615 9.40625 7.22656C9.30208 6.98177 9.15885 6.76823 8.97656 6.58594C8.79427 6.40365 8.58073 6.26042 8.33594 6.15625C8.09635 6.05208 7.83854 6 7.5625 6C7.28646 6 7.02604 6.05208 6.78125 6.15625C6.54167 6.26042 6.33073 6.40365 6.14844 6.58594C5.96615 6.76823 5.82292 6.98177 5.71875 7.22656C5.61458 7.46615 5.5625 7.72396 5.5625 8C5.5625 8.27604 5.61458 8.53646 5.71875 8.78125C5.82292 9.02083 5.96615 9.23177 6.14844 9.41406C6.33073 9.59635 6.54167 9.73958 6.78125 9.84375C7.02604 9.94792 7.28646 10 7.5625 10C7.83854 10 8.09635 9.94792 8.33594 9.84375C8.58073 9.73958 8.79427 9.59635 8.97656 9.41406C9.15885 9.23177 9.30208 9.02083 9.40625 8.78125C9.51042 8.53646 9.5625 8.27604 9.5625 8Z" fill="black" fill-opacity="0.8956"/>
</svg>
