<?xml version="1.0" standalone="no"?><!DOCTYPE svg PUBLIC "-//W3C//DTD SVG 1.1//EN" "http://www.w3.org/Graphics/SVG/1.1/DTD/svg11.dtd"><svg t="1770438411487" class="icon" viewBox="0 0 1024 1024" version="1.1" xmlns="http://www.w3.org/2000/svg" p-id="11168" xmlns:xlink="http://www.w3.org/1999/xlink" width="256" height="256"><path d="M512 768c-3.584 0-7.168 0-10.752 0.512C504.832 768 508.416 768 512 768z" p-id="11169" fill="#4cc2ff"></path><path d="M726.528 141.312v151.552H768v72.192c0 8.704-5.12 16.384-12.8 19.968l-197.632 92.16c-4.096 2.048-9.216-1.024-9.216-5.632V206.336h63.488L512 36.352 411.648 206.336h63.488v373.248c0 7.168-7.68 11.776-13.824 8.192L267.264 478.72C260.096 474.624 256 467.456 256 459.264v-66.56c-0.512 0-0.512 0.512-1.024 0.512 22.016-12.288 36.864-35.84 37.376-62.976 0.512-38.912-30.72-72.192-69.632-74.24-41.984-2.048-76.8 31.744-76.8 73.216 0 27.648 15.36 51.2 37.376 64-0.512 0-0.512-0.512-1.024-0.512v81.408c0 25.6 13.824 49.152 35.84 61.44l256.512 144.384v94.72c1.024-0.512 1.536-0.512 2.56-1.024-45.056 14.336-77.312 57.344-75.776 107.52 1.536 56.32 46.592 102.912 102.4 106.496 64 4.096 116.736-46.592 116.736-109.568 0-48.64-31.744-90.112-75.776-104.448 1.024 0.512 2.048 0.512 2.56 1.024V579.584c0-10.24 6.144-19.968 15.36-24.064l236.544-110.08c24.576-11.776 40.448-36.352 40.96-64v-89.088h41.472v-151.04H726.528zM185.856 393.728c1.536 0.512 3.072 1.536 4.096 2.048-1.536-0.512-3.072-1.024-4.096-2.048z m5.632 3.072c2.048 1.024 3.584 1.536 5.632 2.048-2.048-0.512-4.096-1.536-5.632-2.048z m7.168 2.56c1.536 0.512 3.584 1.024 5.12 1.536-1.536-0.512-3.584-1.024-5.12-1.536z m6.144 1.536c2.048 0.512 4.096 0.512 6.144 1.024-2.048-0.512-4.096-0.512-6.144-1.024z m14.848 1.536c-2.048 0-4.608 0-6.656-0.512 2.048 0 4.096 0.512 6.656 0.512 2.048 0 4.608 0 6.656-0.512-2.56 0-4.608 0.512-6.656 0.512z m7.68-0.512c2.048 0 4.096-0.512 6.144-1.024-1.536 0.512-3.584 0.512-6.144 1.024z m7.68-1.536c1.536-0.512 3.584-1.024 5.12-1.536-1.536 1.024-3.584 1.536-5.12 1.536z m7.168-1.536c2.048-0.512 3.584-1.536 5.632-2.048-2.048 0.512-4.096 1.536-5.632 2.048z m6.656-2.56c1.536-0.512 3.072-1.536 4.096-2.048-1.024 0.512-2.56 1.024-4.096 2.048z m286.72 374.272c2.56 0.512 5.12 1.024 7.68 2.048-2.56-1.024-5.12-1.536-7.68-2.048z" p-id="11170" fill="#4cc2ff"></path></svg>